# xmcd CD database file
#
# Track frame offsets:
#	150
#	24185
#	42430
#
# Disc length: 885 seconds
#
# Revision: 1
# Processed by: cddbd v1.5PL3 Copyright (c) Steve Scherf et al.
# Submitted via: CDex 1.50Beta7
#
DISCID=19037303
DTITLE=YeLLOW Generation - 北風と太陽
DYEAR=2002
DGENRE=JPop
TTITLE0=北風と太陽
TTITLE1=2880316 〜地球最後の日の皆様へ〜
TTITLE2=北風と太陽(LESS VOCAL)
EXTD=YEAR: 2002
EXTT0=
EXTT1=
EXTT2=
PLAYORDER=
